 http://i970.photobucket.com/albums/ae185/swarint/dada%20moni/vlcsnap-2012-12-03-11h47m45s25.png 
http://i970.photobucket.com/albums/ae185/swarint/dada%20moni/vlcsnap-2012-12-03-11h48m12s69.png 
http://i970.photobucket.com/albums/ae185/swarint/dada%20moni/vlcsnap-2012-12-03-11h49m03s66.png 
http://i970.photobucket.com/albums/ae185/swarint/dada%20moni/vlcsnap-2012-12-03-11h49m13s163.png 
http://i970.photobucket.com/albums/ae185/swarint/dada%20moni/vlcsnap-2012-12-03-11h49m18s216.png 
http://i970.photobucket.com/albums/ae185/swarint/dada%20moni/vlcsnap-2012-12-03-11h49m22s249.png 
http://i970.photobucket.com/albums/ae185/swarint/dada%20moni/vlcsnap-2012-12-03-11h49m27s45.png 
http://i970.photobucket.com/albums/ae185/swarint/dada%20moni/vlcsnap-2012-12-03-11h49m33s111.png 
http://i970.photobucket.com/albums/ae185/swarint/dada%20moni/vlcsnap-2012-12-03-11h49m55s79.png 
http://i970.photobucket.com/albums/ae185/swarint/dada %20moni/ vlcsnap-2012-12-03-11h50m00s124.png 
http://i970.photobucket.com/albums/ae185/swarint/dada%20moni/vlcsnap-2012-12-03-11h50m28s149.png


Friends,

Am sure you will like this docu on one and only Dada Moni, truly a man of all seasons and without doubt a Veteran, the variety or roles he did over so many decades it is AMAZING.

Always a pleasure to see him, RIP IN Dada.

Info-


Watch the documentary "Journey of a Legend - Ashok Kumar". Ashok Kumar takes through his journey in the Indian Film Industry in his own words. The actor from the Golden era shares his experiences and rare interviews associated with films. Some of his movies such as Achoot Kanya, Jhoola, Kismat, Meri Surat Teri Ankhein, Ashirwaad by S.K Films have been a super hit. Produced by Sambhu Munshi & Kartik Das
He was one of the first anti-heroes of Indian Cinema with his role in the film Kismet (1943). This movie went on to create a record for the highest grossing film in India at the time of its release. He produced several films for Bombay Talkies during the final years of the company including the famous 'Mahal' in 1949 in which he co-starred with Madhubala. Watch the documentary to know more:
Produced By: Sambhu Munshi and Kartik Das
Directed By: Jyoti Prakash Roy

Specs-
Format : AVI
Format/Info : Audio Video Interleave
File size : 488 MiB
Duration : 1h 5mn
Overall bit rate : 1 042 Kbps

Video
ID : 0
Format : MPEG-4 Visual
Format profile : Simple@L3
Format settings, BVOP : No
Format settings, QPel : No
Format settings, GMC : No warppoints
Format settings, Matrix : Default (H.263)
Codec ID : XVID
Codec ID/Hint : XviD
Duration : 1h 5mn
Bit rate : 898 Kbps
Width : 492 pixels
Height : 360 pixels
Display aspect ratio : 4:3
Frame rate : 25.000 fps
Color space : YUV
Chroma subsampling : 4:2:0
Bit depth : 8 bits
Scan type : Progressive
Compression mode : Lossy
Bits/(Pixel*Frame) : 0.203
Stream size : 420 MiB (86%)
Writing library : XviD 1.2.1 (UTC 2008-12-04)

Audio
ID : 1
Format : MPEG Audio
Format version : Version 1
Format profile : Layer 3
Mode : Joint stereo
Mode extension : MS Stereo
Codec ID : 55
Codec ID/Hint : MP3
Duration : 1h 5mn
Bit rate mode : Constant
Bit rate : 128 Kbps
Channel(s) : 2 channels
Sampling rate : 44.1 KHz
Compression mode : Lossy
Stream size : 59.9 MiB (12%)
Alignment : Aligned on interleaves
Interleave, duration : 26 ms (0.65 video frame)
Writing library : LAME3.98.2


Commentary by OM PURI saheb

As always apprec any valuable comments and/or...... and bear with my tortoise speed, cheers :)